<?xml version="1.0" encoding="utf-8"?>
<!-- Generator: Adobe Adobe Illustrator 24.2.0, SVG Export Plug-In . SVG Version: 6.00 Build 0)  -->
<svg version="1.1" xmlns="http://www.w3.org/2000/svg" xmlns:xlink="http://www.w3.org/1999/xlink" x="0px" y="0px" width="712px"
	 height="930px" viewBox="0 0 712 930" style="enable-background:new 0 0 712 930;" xml:space="preserve">
<style type="text/css">
	.st0{fill:url(#SVGID_1_);}
	.st1{fill:url(#SVGID_2_);}
	.st2{fill:url(#SVGID_3_);}
	.st3{fill:url(#SVGID_4_);}
	.st4{fill:url(#SVGID_5_);}
	.st5{fill:url(#SVGID_6_);}
	.st6{fill:url(#SVGID_7_);}
	.st7{fill:#EEFDFF;}
	.st8{fill:url(#SVGID_8_);}
	.st9{fill:url(#SVGID_9_);}
	.st10{fill:url(#SVGID_10_);}
	.st11{fill:url(#SVGID_11_);}
	.st12{fill:#FFFFFF;}
	.st13{fill:url(#SVGID_12_);}
	.st14{fill:url(#SVGID_13_);}
	.st15{fill:url(#SVGID_14_);}
	.st16{fill:url(#SVGID_15_);}
	.st17{fill:url(#SVGID_16_);}
</style>
<g>
	
		<radialGradient id="SVGID_1_" cx="356" cy="666.431" r="103.8454" gradientTransform="matrix(-1 0 0 0.4638 656.8873 530.6301)" gradientUnits="userSpaceOnUse">
		<stop  offset="0" style="stop-color:#69EBFA"/>
		<stop  offset="0.2207" style="stop-color:#6CEBFA;stop-opacity:0.7793"/>
		<stop  offset="0.3831" style="stop-color:#75EDFA;stop-opacity:0.6169"/>
		<stop  offset="0.5269" style="stop-color:#85EFFB;stop-opacity:0.4731"/>
		<stop  offset="0.6599" style="stop-color:#9CF2FC;stop-opacity:0.3401"/>
		<stop  offset="0.7855" style="stop-color:#B9F6FD;stop-opacity:0.2145"/>
		<stop  offset="0.9038" style="stop-color:#DCFAFE;stop-opacity:0.0962"/>
		<stop  offset="1" style="stop-color:#FFFFFF;stop-opacity:0"/>
	</radialGradient>
	<ellipse class="st0" cx="300.89" cy="839.72" rx="104.5" ry="48.5"/>
	<g>
		
			<linearGradient id="SVGID_2_" gradientUnits="userSpaceOnUse" x1="-295.925" y1="-1065.4393" x2="-63.6492" y2="-1303.7322" gradientTransform="matrix(-0.1117 0.9937 0.9937 0.1117 1500.7383 965.6318)">
			<stop  offset="0.0397" style="stop-color:#06BED8"/>
			<stop  offset="1" style="stop-color:#CDFAF1"/>
		</linearGradient>
		<path class="st1" d="M513.63,509.85c-67.76,18.56-83.77,13.36-95.85,31.53c-1.39,2.09-8.47,12.74-7.05,26.42
			c1.13,10.9,7.2,19.31,11.02,23.01c23.21,22.47,87.09-5.02,123.67-35.09c7.98-6.56,29.37-24.14,25.06-36.63
			c-1.77-5.12-7.25-7.66-11.19-9.42C541.9,501.89,523.85,507.06,513.63,509.85z"/>
		
			<linearGradient id="SVGID_3_" gradientUnits="userSpaceOnUse" x1="315.8699" y1="105.9846" x2="359.1366" y2="99.6749" gradientTransform="matrix(-1 0 0 1 656.8873 0)">
			<stop  offset="0.0397" style="stop-color:#06CFF1"/>
			<stop  offset="1" style="stop-color:#CDFAF1"/>
		</linearGradient>
		<polygon class="st2" points="304.41,149.02 318.84,149.02 318.84,54.38 304.41,54.38 		"/>
		
			<linearGradient id="SVGID_4_" gradientUnits="userSpaceOnUse" x1="304.8344" y1="215.8489" x2="381.6173" y2="129.1586" gradientTransform="matrix(-1 0 0 1 656.8873 0)">
			<stop  offset="0.0397" style="stop-color:#06CFF1"/>
			<stop  offset="1" style="stop-color:#CDFAF1"/>
		</linearGradient>
		<path class="st3" d="M261.82,201.3h99.61c7.34,0,13.3-5.95,13.3-13.3v-35.6c0-7.34-5.95-13.3-13.3-13.3h-99.61
			c-7.34,0-13.3,5.95-13.3,13.3V188C248.52,195.35,254.48,201.3,261.82,201.3z"/>
		
			<linearGradient id="SVGID_5_" gradientUnits="userSpaceOnUse" x1="193.6208" y1="516.1273" x2="497.8827" y2="211.8654" gradientTransform="matrix(-1 0 0 1 656.8873 0)">
			<stop  offset="0.0397" style="stop-color:#06CFF1"/>
			<stop  offset="1" style="stop-color:#CDFAF1"/>
		</linearGradient>
		<path class="st4" d="M189.94,512.28h243.38c57.26,0,104.11-46.85,104.11-104.11v-54.08c0-101.88-83.36-185.23-185.24-185.23
			h-81.13c-101.88,0-185.24,83.36-185.24,185.23v54.08C85.83,465.67,132.44,512.28,189.94,512.28z"/>
		
			<linearGradient id="SVGID_6_" gradientUnits="userSpaceOnUse" x1="344.4628" y1="402.3234" x2="347.1669" y2="280.6358" gradientTransform="matrix(-1 0 0 1 656.8873 0)">
			<stop  offset="0" style="stop-color:#030D14"/>
			<stop  offset="1" style="stop-color:#0B2F45"/>
		</linearGradient>
		<path class="st5" d="M156.86,398.31L156.86,398.31c5.91,2.92,12.53,4.45,19.26,4.45h271.01c6.73,0,13.35-1.53,19.26-4.45l0,0
			c14.51-7.17,22.71-21.66,20.66-36.52l-0.15-1.08c-6.94-50.34-52.54-89.04-108.43-91.95c-23.65-1.23-48.47-1.87-74.35-1.71
			c-20.28,0.12-39.88,0.71-58.75,1.68c-56.11,2.89-102.03,41.44-109.01,91.97c-0.05,0.36-0.1,0.73-0.15,1.09
			C134.15,376.65,142.34,391.14,156.86,398.31z"/>
		<g>
			
				<radialGradient id="SVGID_7_" cx="273.8377" cy="340.5657" r="50.574" gradientTransform="matrix(-1 0 0 1 656.8873 0)" gradientUnits="userSpaceOnUse">
				<stop  offset="0.1296" style="stop-color:#3280FC"/>
				<stop  offset="1" style="stop-color:#000000"/>
			</radialGradient>
			<circle class="st6" cx="383.05" cy="340.57" r="51.1"/>
			<g>
				
					<ellipse transform="matrix(0.9853 -0.1707 0.1707 0.9853 -52.5048 70.3725)" class="st7" cx="383.05" cy="340.57" rx="36.68" ry="36.68"/>
			</g>
			<g>
				
					<linearGradient id="SVGID_8_" gradientUnits="userSpaceOnUse" x1="243.0301" y1="340.5657" x2="304.6453" y2="340.5657" gradientTransform="matrix(-1 0 0 1 656.8873 0)">
					<stop  offset="0" style="stop-color:#030D14"/>
					<stop  offset="1" style="stop-color:#0B2F45"/>
				</linearGradient>
				<path class="st8" d="M352.24,340.57c0,17.01,13.79,30.81,30.81,30.81s30.81-13.79,30.81-30.81c0-17.01-13.79-30.81-30.81-30.81
					S352.24,323.55,352.24,340.57z"/>
			</g>
			<g>
				<path class="st7" d="M363.31,332.58c0,6.3,5.11,11.41,11.41,11.41c6.3,0,11.41-5.11,11.41-11.41c0-6.3-5.11-11.41-11.41-11.41
					C368.42,321.17,363.31,326.28,363.31,332.58z"/>
			</g>
			<g>
				<path class="st7" d="M383.05,364.19c0,2.51,2.04,4.55,4.55,4.55c2.51,0,4.55-2.04,4.55-4.55c0-2.51-2.04-4.55-4.55-4.55
					C385.09,359.64,383.05,361.68,383.05,364.19z"/>
			</g>
			<g>
				<path class="st7" d="M398.9,357.36c0,1.26,1.02,2.28,2.28,2.28c1.26,0,2.28-1.02,2.28-2.28c0-1.26-1.02-2.28-2.28-2.28
					C399.92,355.08,398.9,356.1,398.9,357.36z"/>
			</g>
		</g>
		<g>
			
				<radialGradient id="SVGID_9_" cx="411.8901" cy="340.5657" r="50.5739" gradientTransform="matrix(-1 0 0 1 656.8873 0)" gradientUnits="userSpaceOnUse">
				<stop  offset="0.1296" style="stop-color:#3280FC"/>
				<stop  offset="1" style="stop-color:#000000"/>
			</radialGradient>
			<circle class="st9" cx="245" cy="340.57" r="51.1"/>
			<g>
				<path class="st7" d="M208.32,340.57c0,20.26,16.42,36.68,36.68,36.68c20.26,0,36.68-16.42,36.68-36.68
					c0-20.26-16.42-36.68-36.68-36.68C224.74,303.89,208.32,320.31,208.32,340.57z"/>
			</g>
			<g>
				
					<linearGradient id="SVGID_10_" gradientUnits="userSpaceOnUse" x1="381.0828" y1="340.5657" x2="442.6974" y2="340.5657" gradientTransform="matrix(-1 0 0 1 656.8873 0)">
					<stop  offset="0" style="stop-color:#030D14"/>
					<stop  offset="1" style="stop-color:#0B2F45"/>
				</linearGradient>
				<path class="st10" d="M214.19,340.57c0,17.01,13.79,30.81,30.81,30.81c17.01,0,30.81-13.79,30.81-30.81
					c0-17.01-13.79-30.81-30.81-30.81C227.98,309.76,214.19,323.55,214.19,340.57z"/>
			</g>
			<g>
				<path class="st7" d="M225.26,332.58c0,6.3,5.11,11.41,11.41,11.41c6.3,0,11.41-5.11,11.41-11.41c0-6.3-5.11-11.41-11.41-11.41
					C230.37,321.17,225.26,326.28,225.26,332.58z"/>
			</g>
			<g>
				<path class="st7" d="M245,364.19c0,2.51,2.04,4.55,4.55,4.55s4.55-2.04,4.55-4.55c0-2.51-2.04-4.55-4.55-4.55
					S245,361.68,245,364.19z"/>
			</g>
			<g>
				<path class="st7" d="M260.84,357.36c0,1.26,1.02,2.28,2.28,2.28c1.26,0,2.28-1.02,2.28-2.28c0-1.26-1.02-2.28-2.28-2.28
					C261.86,355.08,260.84,356.1,260.84,357.36z"/>
			</g>
		</g>
		
			<linearGradient id="SVGID_11_" gradientUnits="userSpaceOnUse" x1="306.3645" y1="53.738" x2="363.6235" y2="45.3877" gradientTransform="matrix(-1 0 0 1 656.8873 0)">
			<stop  offset="0.0397" style="stop-color:#06CFF1"/>
			<stop  offset="1" style="stop-color:#CDFAF1"/>
		</linearGradient>
		<path class="st11" d="M293.15,48.07c0,10.2,8.27,18.48,18.48,18.48c10.2,0,18.48-8.27,18.48-18.48c0-10.21-8.27-18.48-18.48-18.48
			C301.42,29.59,293.15,37.86,293.15,48.07z"/>
		<circle class="st12" cx="304.41" cy="40.85" r="5.63"/>
		<path class="st12" d="M152.52,228.1c-0.25,8.63,6.8,18.94,14.87,19.83c7.56,0.83,13.6-6.9,19.83-14.86
			c6.14-7.85,19.56-28.02,14.22-33.73C194.37,191.81,153.09,207.75,152.52,228.1z"/>
		<circle class="st12" cx="221.59" cy="188.79" r="6.42"/>
		<path class="st12" d="M153.43,347.77c2.06,1.45,16.43-27.81,54.98-53.18c13.55-8.92,26.94-15.28,26.14-17.13
			c-0.81-1.88-15.88,1.61-27.94,7.21C168.17,302.51,150.98,346.04,153.43,347.77z"/>
		<path class="st12" d="M252.17,157.52c0.46,0.07,0.75-2.63,3-6.81c0,0,1.05-1.95,2.25-3.61c3.87-5.33,17-5.21,18.03-5.2
			c20.44,0.18,33.58-1.12,33.58-1c0,0.1-9.59-0.09-16.61-0.23c-19.82-0.4-31.62-1.47-36.68,3.84c-2.1,2.2-3.15,5.07-3.15,5.07
			C251.15,153.48,251.63,157.44,252.17,157.52z"/>
		<path class="st7" d="M256.42,424.69c0.5,4.9,4.58,8.67,9.47,9.14l67.7,6.53c4.9,0.47,9.62-2.45,11.04-7.16
			c0.63-2.09,1.12-4.25,1.46-6.47c0.09-0.61-0.07-1.24-0.45-1.73c-0.38-0.49-0.95-0.8-1.57-0.86l-85.4-8.24
			c-0.61-0.06-1.21,0.14-1.68,0.54c-0.46,0.4-0.74,0.97-0.76,1.59C256.13,420.28,256.2,422.51,256.42,424.69z"/>
		
			<linearGradient id="SVGID_12_" gradientUnits="userSpaceOnUse" x1="343.4139" y1="449.5876" x2="431.5083" y2="361.4932" gradientTransform="matrix(-1 0 0 1 656.8873 0)">
			<stop  offset="0.0714" style="stop-color:#0DA9AB"/>
			<stop  offset="1" style="stop-color:#CDFAF1"/>
		</linearGradient>
		<path class="st13" d="M256.42,424.7c2.16,20.98,18.85,38.24,40.64,40.32c21.5,2.08,40.91-11.25,47.3-30.99
			c-1.7,4.22-6.14,6.79-10.76,6.33l-67.71-6.52C260.99,433.35,256.94,429.59,256.42,424.7z"/>
		
			<linearGradient id="SVGID_13_" gradientUnits="userSpaceOnUse" x1="260.2125" y1="716.9182" x2="493.6179" y2="444.3608" gradientTransform="matrix(-1 0 0 1 656.8873 0)">
			<stop  offset="0.0397" style="stop-color:#06CFF1"/>
			<stop  offset="0.1009" style="stop-color:#25D8F4"/>
			<stop  offset="0.2064" style="stop-color:#56E6F8"/>
			<stop  offset="0.3066" style="stop-color:#7BF1FB"/>
			<stop  offset="0.3989" style="stop-color:#97F9FD"/>
			<stop  offset="0.4803" style="stop-color:#A7FDFF"/>
			<stop  offset="0.5423" style="stop-color:#ADFFFF"/>
			<stop  offset="1" style="stop-color:#CDFAF1"/>
		</linearGradient>
		<path class="st14" d="M149.77,576.74c0,0.62,0,1.22,0.03,1.78c0.22,5.68,1.54,9.95,2.19,11.87
			c18.63,56.92,29.8,86.94,45.46,111.22c2.7,4.19,5.54,8.22,8.6,12.17c4,5.27,8.38,10.41,13.25,15.71
			c10.82,11.76,27.18,17.09,32.45,18.93c19.28,6.81,36.32,5.57,47.65,5.68h1.97c11.36-0.11,28.37,1.14,47.65-5.68
			c5.27-1.84,21.66-7.17,32.45-18.93c29.75-32.37,41.18-59.27,67.31-139.1c0.62-1.84,1.87-5.81,2.16-11.14
			c0.08-1.54,0.11-3.08,0.03-4.62c-0.57-9.55-4.44-18.9-11.3-27.45c-11.76-14.66-29.94-22.69-48.73-22.77l-90.56-0.38l-88.91-0.35
			c-19.2-0.08-37.8,7.98-50,22.82c-5.9,7.19-9.65,14.95-11.03,22.96c-0.19,1.14-0.35,2.3-0.46,3.43
			C149.85,574.17,149.77,575.44,149.77,576.74z"/>
		
			<linearGradient id="SVGID_14_" gradientUnits="userSpaceOnUse" x1="247.8482" y1="581.0369" x2="388.2091" y2="417.1315" gradientTransform="matrix(-1 0 0 1 656.8873 0)">
			<stop  offset="0.0397" style="stop-color:#06CFF1"/>
			<stop  offset="1" style="stop-color:#CDFAF1"/>
		</linearGradient>
		<path class="st15" d="M300.38,524.04l90.56,0.38c18.79,0.08,36.97,8.11,48.73,22.77c6.87,8.55,10.74,17.9,11.3,27.45
			c-0.46-9.79-4.49-19.39-11.65-28.12c-12.17-14.85-30.8-22.9-50-22.82L300.38,524.04z"/>
		
			<linearGradient id="SVGID_15_" gradientUnits="userSpaceOnUse" x1="-2215.2241" y1="479.6612" x2="-2023.2208" y2="379.6033" gradientTransform="matrix(0.9886 -0.1505 0.1505 0.9886 2225.2344 -131.3649)">
			<stop  offset="0.0397" style="stop-color:#06CFF1"/>
			<stop  offset="0.3738" style="stop-color:#56E0F1"/>
			<stop  offset="0.672" style="stop-color:#96EEF1"/>
			<stop  offset="0.8881" style="stop-color:#BEF7F1"/>
			<stop  offset="1" style="stop-color:#CDFAF1"/>
		</linearGradient>
		<path class="st16" d="M210.37,657.47c1.32-70.25,10.83-84.14-3.19-100.85c-1.61-1.92-9.83-11.72-23.36-14.22
			c-10.78-1.99-20.56,1.46-25.18,4.08c-28.11,15.93-19.77,84.97-1.25,128.55c4.04,9.5,14.87,34.99,28.07,34.39
			c5.41-0.25,9.4-4.79,12.2-8.07C210.03,686.83,210.17,668.06,210.37,657.47z"/>
		
			<linearGradient id="SVGID_16_" gradientUnits="userSpaceOnUse" x1="395.4279" y1="663.824" x2="519.2784" y2="599.2822" gradientTransform="matrix(-1 0 0 1 656.8873 0)">
			<stop  offset="0.0397" style="stop-color:#06BED8"/>
			<stop  offset="1" style="stop-color:#CDFAF1"/>
		</linearGradient>
		<path class="st17" d="M197.44,701.61c2.7,4.19,5.54,8.22,8.6,12.17c0.97-1,1.84-2,2.62-2.92c12.38-14.49,12.52-33.26,12.71-43.86
			c1.33-70.25,10.84-84.13-3.19-100.84c-1.03-1.24-4.79-5.71-10.9-9.41c13.85,16.66,4.41,30.66,3.08,100.7
			c-0.19,10.6-0.35,29.37-12.71,43.89C197.58,701.43,197.49,701.51,197.44,701.61z"/>
		<path class="st12" d="M157.8,598.97c0.4-7.55,1.81-13.1,4.65-24.2c3.7-14.53,8.35-21.61,5.33-24.41
			c-1.96-1.83-5.83-0.59-6.71-0.31c-13.28,4.23-17.39,29.15-16.82,44.74c0.35,9.54,2.68,20.22,6.18,20.69c0.55,0.07,1.92,0,2.9-0.86
			C157.23,611.15,157.5,604.71,157.8,598.97z"/>
		<path class="st12" d="M148.68,625.61c0,1.52,1.23,2.76,2.76,2.76s2.75-1.23,2.75-2.76c0-1.52-1.23-2.75-2.75-2.75
			S148.68,624.09,148.68,625.61z"/>
	</g>
</g>
</svg>
